# xmcd
#
# Track frame offsets:
# 150
# 14632
# 25662
# 37356
# 49424
# 62138
# 75555
# 87230
# 98871
# 110904
# 124129
# 136063
# 150242
# 162177
# 173765
# 187083
# 199314
# 212352
# 225749
# 236922
# 250304
#
# Disc length: 3512 seconds
#
# Revision: 0
# Processed by: cddbd v1.5.1PL0 Copyright (c) Steve Scherf et al.
# Submitted via: plextools 2.18
#
DISCID=260db615
DTITLE=Sister Rosetta Tharpe - Complete/Integrale, Vol.2 (1943-47), CD1
DYEAR=2000
DGENRE=Gospel
TTITLE0=Sister Rosetta Tharpe - Dis Train
TTITLE1=Sister Rosetta Tharpe - Sin Is To Blame
TTITLE2=Sister Rosetta Tharpe - That's All
TTITLE3=Sister Rosetta Tharpe - Let That Liar Alone
TTITLE4=Sister Rosetta Tharpe - The Devil Has Thrown Him Down
TTITLE5=Sister Rosetta Tharpe - Sleep On Darling Mother
TTITLE6=Sister Rosetta Tharpe - God Don't Like It
TTITLE7=Sister Rosetta Tharpe - I Want To Live So God Can Use Me
TTITLE8=Sister Rosetta Tharpe - Rock Me
TTITLE9=Sister Rosetta Tharpe - What's The News
TTITLE10=Sister Rosetta Tharpe - Nobody Knows, Nobody Cares
TTITLE11=Sister Rosetta Tharpe - Jesus Taught Me How To Play
TTITLE12=Sister Rosetta Tharpe - Forgive Me Lord And Try Me One More Time
TTITLE13=Sister Rosetta Tharpe - What Is The Soul Of A Man?
TTITLE14=Sister Rosetta Tharpe - Singing In My Soul
TTITLE15=Sister Rosetta Tharpe - I Claim Jesus First
TTITLE16=Sister Rosetta Tharpe - Strange Things Happening Every Day
TTITLE17=Sister Rosetta Tharpe - Two Little Fishes And Five Loaves Of Bread
TTITLE18=Sister Rosetta Tharpe - Don't Take Everybody To Be Friend
TTITLE19=Sister Rosetta Tharpe - How Far From God
TTITLE20=Sister Rosetta Tharpe - When I Move To The Sky
EXTD=Fremeaux and Associes FA 1302/1
EXTT0=
EXTT1=
EXTT2=
EXTT3=
EXTT4=
EXTT5=
EXTT6=
EXTT7=
EXTT8=
EXTT9=
EXTT10=
EXTT11=
EXTT12=
EXTT13=
EXTT14=
EXTT15=
EXTT16=
EXTT17=
EXTT18=
EXTT19=
EXTT20=
PLAYORDER=
